<mxfile modified="2019-11-19T06:30:14.064Z" host="www.draw.io" agent="Mozilla/5.0 (Macintosh; Intel Mac OS X 10_15_1) AppleWebKit/537.36 (KHTML, like Gecko) Chrome/78.0.3904.108 Safari/537.36" etag="zkjZ7c8gdPgpUWLV16pv" version="12.2.6" type="github" pages="1">
  <diagram name="Page-1" id="13e1069c-82ec-6db2-03f1-153e76fe0fe0">
    <mxGraphModel dx="980" dy="643" grid="1" gridSize="10" guides="1" tooltips="1" connect="1" arrows="1" fold="1" page="1" pageScale="1" pageWidth="1100" pageHeight="850" background="#ffffff" math="0" shadow="0">
      <root>
        <mxCell id="0"/>
        <mxCell id="1" parent="0"/>
        <mxCell id="7baba1c4bc27f4b0-2" value="Blockchain" style="shape=umlLifeline;perimeter=lifelinePerimeter;whiteSpace=wrap;html=1;container=1;collapsible=0;recursiveResize=0;outlineConnect=0;rounded=1;shadow=0;comic=0;labelBackgroundColor=none;strokeColor=#000000;strokeWidth=1;fillColor=#FFFFFF;fontFamily=Verdana;fontSize=12;fontColor=#000000;align=center;" parent="1" vertex="1">
          <mxGeometry x="300" y="80" width="100" height="850" as="geometry"/>
        </mxCell>
        <mxCell id="7baba1c4bc27f4b0-3" value="IPFS" style="shape=umlLifeline;perimeter=lifelinePerimeter;whiteSpace=wrap;html=1;container=1;collapsible=0;recursiveResize=0;outlineConnect=0;rounded=1;shadow=0;comic=0;labelBackgroundColor=none;strokeColor=#000000;strokeWidth=1;fillColor=#FFFFFF;fontFamily=Verdana;fontSize=12;fontColor=#000000;align=center;" parent="1" vertex="1">
          <mxGeometry x="500" y="80" width="100" height="850" as="geometry"/>
        </mxCell>
        <mxCell id="7baba1c4bc27f4b0-4" value="Parameter&lt;br&gt;Server" style="shape=umlLifeline;perimeter=lifelinePerimeter;whiteSpace=wrap;html=1;container=1;collapsible=0;recursiveResize=0;outlineConnect=0;rounded=1;shadow=0;comic=0;labelBackgroundColor=none;strokeColor=#000000;strokeWidth=1;fillColor=#FFFFFF;fontFamily=Verdana;fontSize=12;fontColor=#000000;align=center;" parent="1" vertex="1">
          <mxGeometry x="750" y="80" width="100" height="850" as="geometry"/>
        </mxCell>
        <mxCell id="7baba1c4bc27f4b0-8" value="Clients" style="shape=umlLifeline;perimeter=lifelinePerimeter;whiteSpace=wrap;html=1;container=1;collapsible=0;recursiveResize=0;outlineConnect=0;rounded=1;shadow=0;comic=0;labelBackgroundColor=none;strokeColor=#000000;strokeWidth=1;fillColor=#FFFFFF;fontFamily=Verdana;fontSize=12;fontColor=#000000;align=center;" parent="1" vertex="1">
          <mxGeometry x="100" y="80" width="100" height="850" as="geometry"/>
        </mxCell>
        <mxCell id="S-k1YYVtQMGQqPoQHIxB-3" value="" style="html=1;points=[];perimeter=orthogonalPerimeter;rounded=0;shadow=0;comic=0;labelBackgroundColor=none;strokeColor=#000000;strokeWidth=1;fillColor=#FFFFFF;fontFamily=Verdana;fontSize=12;fontColor=#000000;align=center;" vertex="1" parent="7baba1c4bc27f4b0-8">
          <mxGeometry x="50" y="130" width="10" height="80" as="geometry"/>
        </mxCell>
        <mxCell id="S-k1YYVtQMGQqPoQHIxB-4" value="&lt;font face=&quot;Helvetica&quot;&gt;2. local training&lt;br&gt;&amp;amp;&amp;nbsp;&lt;br&gt;encryption&lt;br&gt;&amp;amp;&lt;br&gt;accumulator-related&lt;br&gt;generation&lt;br&gt;&lt;/font&gt;" style="html=1;verticalAlign=bottom;endArrow=block;labelBackgroundColor=none;fontFamily=Verdana;fontSize=12;elbow=vertical;edgeStyle=orthogonalEdgeStyle;curved=1;entryX=1;entryY=0.975;entryPerimeter=0;exitX=1.038;exitY=0.345;exitPerimeter=0;entryDx=0;entryDy=0;" edge="1" parent="7baba1c4bc27f4b0-8" target="S-k1YYVtQMGQqPoQHIxB-3">
          <mxGeometry relative="1" as="geometry">
            <mxPoint x="60" y="130" as="sourcePoint"/>
            <mxPoint x="70" y="168" as="targetPoint"/>
            <Array as="points">
              <mxPoint x="140" y="130"/>
              <mxPoint x="140" y="208"/>
            </Array>
          </mxGeometry>
        </mxCell>
        <mxCell id="S-k1YYVtQMGQqPoQHIxB-6" value="" style="html=1;points=[];perimeter=orthogonalPerimeter;rounded=0;shadow=0;comic=0;labelBackgroundColor=none;strokeColor=#000000;strokeWidth=1;fillColor=#FFFFFF;fontFamily=Verdana;fontSize=12;fontColor=#000000;align=center;" vertex="1" parent="7baba1c4bc27f4b0-8">
          <mxGeometry x="50" y="230" width="10" height="50" as="geometry"/>
        </mxCell>
        <mxCell id="S-k1YYVtQMGQqPoQHIxB-12" value="" style="html=1;points=[];perimeter=orthogonalPerimeter;rounded=0;shadow=0;comic=0;labelBackgroundColor=none;strokeColor=#000000;strokeWidth=1;fillColor=#FFFFFF;fontFamily=Verdana;fontSize=12;fontColor=#000000;align=center;" vertex="1" parent="7baba1c4bc27f4b0-8">
          <mxGeometry x="50" y="320" width="10" height="50" as="geometry"/>
        </mxCell>
        <mxCell id="S-k1YYVtQMGQqPoQHIxB-1" value="&lt;font style=&quot;font-size: 12px&quot;&gt;1. dispatch initial model&lt;/font&gt;" style="endArrow=classic;html=1;labelPosition=center;verticalLabelPosition=top;align=center;verticalAlign=bottom;" edge="1" parent="1" target="7baba1c4bc27f4b0-8">
          <mxGeometry width="50" height="50" relative="1" as="geometry">
            <mxPoint x="800" y="160" as="sourcePoint"/>
            <mxPoint x="160" y="160" as="targetPoint"/>
          </mxGeometry>
        </mxCell>
        <mxCell id="S-k1YYVtQMGQqPoQHIxB-5" value="&lt;font face=&quot;Helvetica&quot;&gt;3. upload encrypted gradients&lt;/font&gt;" style="html=1;verticalAlign=bottom;endArrow=block;labelBackgroundColor=none;fontFamily=Verdana;fontSize=12;edgeStyle=elbowEdgeStyle;elbow=vertical;" edge="1" parent="1" target="7baba1c4bc27f4b0-3">
          <mxGeometry relative="1" as="geometry">
            <mxPoint x="160" y="310" as="sourcePoint"/>
            <mxPoint x="350" y="310" as="targetPoint"/>
          </mxGeometry>
        </mxCell>
        <mxCell id="S-k1YYVtQMGQqPoQHIxB-8" value="&lt;font face=&quot;Helvetica&quot;&gt;return hash&lt;br&gt;&lt;/font&gt;" style="html=1;verticalAlign=bottom;endArrow=open;dashed=1;endSize=8;labelBackgroundColor=none;fontFamily=Verdana;fontSize=12;edgeStyle=elbowEdgeStyle;elbow=vertical;" edge="1" parent="1" source="7baba1c4bc27f4b0-3">
          <mxGeometry relative="1" as="geometry">
            <mxPoint x="160" y="360" as="targetPoint"/>
            <Array as="points">
              <mxPoint x="470" y="360"/>
              <mxPoint x="2.5" y="350"/>
            </Array>
            <mxPoint x="512.5" y="350" as="sourcePoint"/>
          </mxGeometry>
        </mxCell>
        <mxCell id="S-k1YYVtQMGQqPoQHIxB-10" value="&lt;font face=&quot;Helvetica&quot;&gt;3. upload accumulator-related evidence&amp;nbsp;&lt;/font&gt;" style="html=1;verticalAlign=bottom;endArrow=block;labelBackgroundColor=none;fontFamily=Verdana;fontSize=12;edgeStyle=elbowEdgeStyle;elbow=vertical;" edge="1" parent="1">
          <mxGeometry relative="1" as="geometry">
            <mxPoint x="160.5" y="330" as="sourcePoint"/>
            <mxPoint x="800" y="330" as="targetPoint"/>
            <Array as="points">
              <mxPoint x="330.5" y="330"/>
            </Array>
          </mxGeometry>
        </mxCell>
        <mxCell id="S-k1YYVtQMGQqPoQHIxB-13" value="&lt;font face=&quot;Helvetica&quot;&gt;4. interact with blockchain&lt;/font&gt;" style="html=1;verticalAlign=bottom;endArrow=block;labelBackgroundColor=none;fontFamily=Verdana;fontSize=12;edgeStyle=elbowEdgeStyle;elbow=vertical;" edge="1" parent="1" target="7baba1c4bc27f4b0-2">
          <mxGeometry relative="1" as="geometry">
            <mxPoint x="160.5" y="400" as="sourcePoint"/>
            <mxPoint x="550" y="400" as="targetPoint"/>
          </mxGeometry>
        </mxCell>
        <mxCell id="S-k1YYVtQMGQqPoQHIxB-14" value="&lt;font face=&quot;Helvetica&quot;&gt;return status&lt;br&gt;&lt;/font&gt;" style="html=1;verticalAlign=bottom;endArrow=open;dashed=1;endSize=8;labelBackgroundColor=none;fontFamily=Verdana;fontSize=12;edgeStyle=elbowEdgeStyle;elbow=vertical;" edge="1" parent="1" source="7baba1c4bc27f4b0-2">
          <mxGeometry relative="1" as="geometry">
            <mxPoint x="160" y="450" as="targetPoint"/>
            <Array as="points">
              <mxPoint x="230" y="450"/>
              <mxPoint x="470" y="450"/>
              <mxPoint x="2.5" y="440"/>
            </Array>
            <mxPoint x="549.5" y="450" as="sourcePoint"/>
          </mxGeometry>
        </mxCell>
        <mxCell id="S-k1YYVtQMGQqPoQHIxB-15" value="&lt;font face=&quot;Helvetica&quot;&gt;5. waiting &amp;amp; collecting&lt;/font&gt;" style="html=1;points=[];perimeter=orthogonalPerimeter;rounded=0;shadow=0;comic=0;labelBackgroundColor=none;strokeColor=#000000;strokeWidth=1;fillColor=#FFFFFF;fontFamily=Verdana;fontSize=12;fontColor=#000000;align=left;verticalAlign=middle;horizontal=1;" vertex="1" parent="1">
          <mxGeometry x="350" y="480" width="10" height="70" as="geometry"/>
        </mxCell>
        <mxCell id="S-k1YYVtQMGQqPoQHIxB-18" value="" style="html=1;points=[];perimeter=orthogonalPerimeter;rounded=0;shadow=0;comic=0;labelBackgroundColor=none;strokeColor=#000000;strokeWidth=1;fillColor=#FFFFFF;fontFamily=Verdana;fontSize=12;fontColor=#000000;align=left;verticalAlign=middle;horizontal=1;" vertex="1" parent="1">
          <mxGeometry x="350" y="580" width="10" height="110" as="geometry"/>
        </mxCell>
        <mxCell id="S-k1YYVtQMGQqPoQHIxB-19" value="&lt;font face=&quot;Helvetica&quot;&gt;6. get encrypted gradients&lt;/font&gt;" style="html=1;verticalAlign=bottom;endArrow=block;labelBackgroundColor=none;fontFamily=Verdana;fontSize=12;edgeStyle=elbowEdgeStyle;elbow=horizontal;" edge="1" parent="1">
          <mxGeometry relative="1" as="geometry">
            <mxPoint x="360" y="579.5" as="sourcePoint"/>
            <mxPoint x="549" y="579.5" as="targetPoint"/>
          </mxGeometry>
        </mxCell>
        <mxCell id="S-k1YYVtQMGQqPoQHIxB-20" value="&lt;font face=&quot;Helvetica&quot;&gt;return status&lt;br&gt;&lt;/font&gt;" style="html=1;verticalAlign=bottom;endArrow=open;dashed=1;endSize=8;labelBackgroundColor=none;fontFamily=Verdana;fontSize=12;edgeStyle=elbowEdgeStyle;elbow=vertical;" edge="1" parent="1">
          <mxGeometry relative="1" as="geometry">
            <mxPoint x="360" y="610" as="targetPoint"/>
            <Array as="points">
              <mxPoint x="430" y="610"/>
              <mxPoint x="670" y="610"/>
              <mxPoint x="202.5" y="600"/>
            </Array>
            <mxPoint x="549.5" y="610" as="sourcePoint"/>
          </mxGeometry>
        </mxCell>
        <mxCell id="S-k1YYVtQMGQqPoQHIxB-21" value="&lt;font face=&quot;Helvetica&quot;&gt;6. aggregation&lt;/font&gt;" style="html=1;verticalAlign=bottom;endArrow=block;labelBackgroundColor=none;fontFamily=Verdana;fontSize=12;elbow=vertical;edgeStyle=orthogonalEdgeStyle;curved=1;exitX=1.066;exitY=0.713;exitPerimeter=0;" edge="1" parent="1">
          <mxGeometry relative="1" as="geometry">
            <mxPoint x="360" y="615.5" as="sourcePoint"/>
            <mxPoint x="360" y="690" as="targetPoint"/>
            <Array as="points">
              <mxPoint x="424" y="616"/>
              <mxPoint x="424" y="690"/>
            </Array>
          </mxGeometry>
        </mxCell>
        <mxCell id="S-k1YYVtQMGQqPoQHIxB-23" value="&lt;font face=&quot;Helvetica&quot;&gt;6. notify&lt;br&gt;&lt;/font&gt;" style="html=1;verticalAlign=bottom;endArrow=block;labelBackgroundColor=none;fontFamily=Verdana;fontSize=12;edgeStyle=elbowEdgeStyle;elbow=vertical;" edge="1" parent="1" target="7baba1c4bc27f4b0-4">
          <mxGeometry relative="1" as="geometry">
            <mxPoint x="380" y="689.5" as="sourcePoint"/>
            <mxPoint x="569" y="689.5" as="targetPoint"/>
          </mxGeometry>
        </mxCell>
        <mxCell id="S-k1YYVtQMGQqPoQHIxB-29" value="" style="html=1;points=[];perimeter=orthogonalPerimeter;rounded=0;shadow=0;comic=0;labelBackgroundColor=none;strokeColor=#000000;strokeWidth=1;fillColor=#FFFFFF;fontFamily=Verdana;fontSize=12;fontColor=#000000;align=left;verticalAlign=middle;horizontal=1;" vertex="1" parent="1">
          <mxGeometry x="800" y="710" width="10" height="80" as="geometry"/>
        </mxCell>
        <mxCell id="S-k1YYVtQMGQqPoQHIxB-30" value="&lt;font face=&quot;Helvetica&quot;&gt;7.update model&lt;br&gt;&lt;/font&gt;" style="html=1;verticalAlign=bottom;endArrow=block;labelBackgroundColor=none;fontFamily=Verdana;fontSize=12;elbow=vertical;edgeStyle=orthogonalEdgeStyle;curved=1;exitX=1.066;exitY=0.713;exitPerimeter=0;" edge="1" parent="1">
          <mxGeometry relative="1" as="geometry">
            <mxPoint x="810" y="710" as="sourcePoint"/>
            <mxPoint x="810" y="784" as="targetPoint"/>
            <Array as="points">
              <mxPoint x="860" y="710"/>
              <mxPoint x="860" y="784"/>
            </Array>
          </mxGeometry>
        </mxCell>
        <mxCell id="S-k1YYVtQMGQqPoQHIxB-31" value="&lt;font style=&quot;font-size: 12px&quot;&gt;8. random verify &lt;br&gt;client&#39;s data sample&lt;br&gt;&lt;/font&gt;" style="endArrow=classic;html=1;labelPosition=center;verticalLabelPosition=top;align=center;verticalAlign=bottom;" edge="1" parent="1">
          <mxGeometry width="50" height="50" relative="1" as="geometry">
            <mxPoint x="800" y="830" as="sourcePoint"/>
            <mxPoint x="149.5" y="830" as="targetPoint"/>
          </mxGeometry>
        </mxCell>
        <mxCell id="S-k1YYVtQMGQqPoQHIxB-32" value="&lt;font style=&quot;font-size: 12px&quot;&gt;1. dispatch initial model&lt;br&gt;&lt;/font&gt;" style="endArrow=classic;html=1;labelPosition=center;verticalLabelPosition=top;align=center;verticalAlign=bottom;" edge="1" parent="1">
          <mxGeometry width="50" height="50" relative="1" as="geometry">
            <mxPoint x="800" y="910" as="sourcePoint"/>
            <mxPoint x="149.5" y="910" as="targetPoint"/>
          </mxGeometry>
        </mxCell>
        <mxCell id="S-k1YYVtQMGQqPoQHIxB-33" value="&lt;font face=&quot;Helvetica&quot;&gt;8. return evidence&lt;br&gt;&lt;/font&gt;" style="html=1;verticalAlign=bottom;endArrow=open;dashed=1;endSize=8;labelBackgroundColor=none;fontFamily=Verdana;fontSize=12;edgeStyle=elbowEdgeStyle;elbow=vertical;" edge="1" parent="1" source="7baba1c4bc27f4b0-8" target="7baba1c4bc27f4b0-4">
          <mxGeometry relative="1" as="geometry">
            <mxPoint x="790" y="860" as="targetPoint"/>
            <Array as="points">
              <mxPoint x="700" y="850"/>
              <mxPoint x="170" y="860"/>
              <mxPoint x="610" y="850"/>
              <mxPoint x="400" y="870"/>
              <mxPoint x="640" y="870"/>
              <mxPoint x="172.5" y="860"/>
            </Array>
            <mxPoint x="170" y="860" as="sourcePoint"/>
          </mxGeometry>
        </mxCell>
        <mxCell id="S-k1YYVtQMGQqPoQHIxB-34" value="repeat" style="text;html=1;strokeColor=none;fillColor=none;align=center;verticalAlign=middle;whiteSpace=wrap;rounded=0;" vertex="1" parent="1">
          <mxGeometry x="450" y="870" width="40" height="20" as="geometry"/>
        </mxCell>
      </root>
    </mxGraphModel>
  </diagram>
</mxfile>
